<svg xmlns="http://www.w3.org/2000/svg" width="934" height="451.766" viewBox="0 0 934 451.766"><g transform="translate(-81.461 -1478.234)"><path d="M467,0C784-32,934,79.246,934,177S724.917,354,467,354,0,274.754,0,177,150,32,467,0Z" transform="translate(81.461 1576)" fill="#babdbf" opacity="0.09"/><g transform="translate(421.793 1478.234)"><path d="M576.136,644.256l5.279,21.777a1.36,1.36,0,0,1-.026.735l-23.948,74.837a1.36,1.36,0,0,1-2.647-.261l-3.313-29.154a1.36,1.36,0,0,1,.058-.575l21.982-67.461a1.36,1.36,0,0,1,2.615.1Z" transform="translate(-249.247 -457.757)" fill="#2f2e41"/><path d="M513.218,575.493l4.874,18.685L496.97,662.417,492.1,641.295Z" transform="translate(-188.27 -387.154)" fill="#f2f2f2"/><path d="M415.828,809.33c.812,2.437,84.486-.812,85.3-1.625a17.629,17.629,0,0,0,1.787-3.25H415.772A24.387,24.387,0,0,0,415.828,809.33Z" transform="translate(-197.301 -519.444)" opacity="0.1"/><g transform="translate(0 0)"><path d="M194.117,657.955h22.746l56.053-21.934s39.806-16.247,36.557,14.623-8.936,72.3-8.936,72.3-17.872-8.124-27.621-5.687-3.249-49.555-3.249-49.555-79.612,38.181-86.924,33.307-8.936-38.994-8.936-38.994Z" transform="translate(-104.757 -453.369)" fill="#2f2e41"/><path d="M194.117,657.955h22.746l56.053-21.934s39.806-16.247,36.557,14.623-8.936,72.3-8.936,72.3-17.872-8.124-27.621-5.687-3.249-49.555-3.249-49.555-79.612,38.181-86.924,33.307-8.936-38.994-8.936-38.994Z" transform="translate(-104.757 -453.369)" opacity="0.1"/><path d="M252.1,558.82l27.528,39.551,64.177,53.617s59.3,13.81,51.179,23.559S337.31,665.8,337.31,665.8s-73.926-53.616-76.363-57.678S231.7,565.876,231.7,565.876Z" transform="translate(-126.906 -425.467)" fill="#e4a281"/><path d="M252.1,558.82l27.528,39.551,64.177,53.617s59.3,13.81,51.179,23.559S337.31,665.8,337.31,665.8s-73.926-53.616-76.363-57.678S231.7,565.876,231.7,565.876Z" transform="translate(-126.906 -425.467)" fill="#f8bfa2" opacity="0.1"/><path d="M221.669,507.092l17.872,34.932s-4.062,17.06-10.561,18.684-34.119-21.122-34.119-21.122Z" transform="translate(-112.811 -405.677)" fill="#e8e8e8"/><path d="M221.669,507.092l17.872,34.932s-4.062,17.06-10.561,18.684-34.119-21.122-34.119-21.122Z" transform="translate(-112.811 -405.677)" fill="#fff" opacity="0.1"/><path d="M415.828,789.194c.812,2.437,84.486-.812,85.3-1.625a17.632,17.632,0,0,0,1.787-3.249c.764-1.625,1.462-3.249,1.462-3.249l-3.25-26.3-82.862-2.941s-2.072,22.291-2.494,32.495A24.4,24.4,0,0,0,415.828,789.194Z" transform="translate(-197.301 -499.309)" fill="#2f2e41"/><path d="M453.345,689.965l1.624,22.746H418.413V689.965Z" transform="translate(-160.08 -430.95)" opacity="0.1"/><path d="M385.589,701.779l.218-.043-1.03,9.792H364.467v-9.749Z" transform="translate(-139.441 -435.453)" opacity="0.1"/><circle cx="36.557" cy="36.557" r="36.557" transform="translate(84.486 16.929)" fill="#f8bfa2"/><path d="M219.587,462.581S207.4,483.7,204.965,495.075s-36.557-22.746-36.557-22.746L163.94,460.55s32.089-15.029,29.651-27.214S219.587,462.581,219.587,462.581Z" transform="translate(-100.981 -376.6)" fill="#f8bfa2"/><path d="M240.433,584.722,273.74,628.59l79.612,59.3s57.678,12.186,44.68,21.122-50.367-8.124-50.367-8.124-80.425-43.056-97.484-60.928-48.742-47.93-48.742-47.93Z" transform="translate(-115.328 -435.377)" fill="#f8bfa2"/><path d="M147.427,692.11l9.748,15.435,58.18-18.3a45.744,45.744,0,0,1,38.086,4.595c10.155,6.4,16.654,16.552,2.031,31.581-29.245,30.058-48.742,13.81-48.742,13.81s-98.3,46.305-114.544,23.559-17.06-34.12-17.06-34.12S137.678,689.672,147.427,692.11Z" transform="translate(-67.002 -474.525)" fill="#2f2e41"/><path d="M336.736,777.556s26,17.06-4.874,25.183-53.616-3.25-53.616-3.25-26.808,0-26.808-13.81,8.936-15.435,8.936-15.435l27.62,4.062S321.3,765.371,336.736,777.556Z" transform="translate(-134.457 -506.356)" fill="#d0cde1"/><path d="M258.039,387.123c2.488,1.109,4.955,2.422,7.661,2.744s5.785-.622,7.066-3.027a9.5,9.5,0,0,0,.8-4.3c.1-4.461-.225-9.283-3.052-12.736-1.8-2.2-4.425-3.582-6.288-5.726a27.057,27.057,0,0,1-3.178-5.193c-3.622-6.8-8.984-13.34-16.437-15.3a35.646,35.646,0,0,0-9.594-.733l-18.768.265a32.672,32.672,0,0,0-9.028.972c-6.041,1.826-10.439,6.906-14.467,11.764a73.572,73.572,0,0,0-8.3,11.451,40.181,40.181,0,0,0-4.763,19.687,18.42,18.42,0,0,0,.675,5.209,28.914,28.914,0,0,0,2.048,4.5c3.52,6.913,5.609,15.548,1.646,22.216,6.885-2.813,13.7-6.5,18.24-12.39,2.032-2.635,3.625-5.719,6.333-7.653s7.12-2.1,8.857.736a7.938,7.938,0,0,1,.9,3.718c.127,2.13.123,4.342,1.026,6.275s3.054,3.493,5.108,2.915c3.537-1,3.2-6.425,5.923-8.891,2.069-1.873,5.261-1.515,7.919-2.365,3.1-.99,5.42-3.673,6.744-6.643,1.006-2.257.992-8.164,2.9-9.386C250.395,383.7,255.825,386.136,258.039,387.123Z" transform="translate(-107.007 -342.833)" fill="#2f2e41"/><path d="M122.025,472.36a9.64,9.64,0,0,1,5.018.013c5.215,1.4,16.9,5.106,19.411,10.746,3.249,7.311,14.623,18.685,14.623,18.685s15.435,15.435,12.186,26-15.435,22.746-15.435,22.746,3.249,50.367-13,63.365-22.746,4.062-22.746,16.247-50.367,50.367-60.116,26.808c0,0,4.874-43.868,3.249-59.3C63.616,582.45,65.961,487.538,122.025,472.36Z" transform="translate(-61.968 -392.264)" fill="#fff"/><path d="M177.939,504.455s14.577,8.271,24.731,21.269,20.239,23.206,15.887,30.723c0,0-30.058,14.623-36.557,13.81s-31.682-29.245-38.181-31.682S134.072,492.269,177.939,504.455Z" transform="translate(-91.829 -403.851)" fill="#fefefe"/></g></g></g></svg>